# xmcd
#
# Track frame offsets:
#	150
#	11908
#	26708
#	39878
#	47723
#	59533
#	70248
#	82405
#	95785
#	102420
#	111598
#	121548
#	130705
#	140298
#	150420
#	163050
#	177243
#	188585
#	198755
#	208778
#	219245
#	227493
#	241468
#	254908
#	261853
#	271203
#
# Disc length: 3778 seconds
#
# Revision: 2
# Processed by: cddbd v1.4PL0 Copyright (c) Steve Scherf et al.
# Submitted via: MusicManager 7.0.3.0 
#
DISCID=790ec01a
DTITLE=Various Artist - 101 Blues and Soul Classics 3
DYEAR=1989
DGENRE=Blues
TTITLE0=Butler, Jerry - Make It Easy On Yourself
TTITLE1=Berry, Chuck - Maybelline
TTITLE2=Berry, Chuck - Nadine
TTITLE3=Floyd, Eddie - Knock On Wood
TTITLE4=Floyd, Eddie - Never Found A Girl
TTITLE5=Floyd, Eddie - Bring It On Home To Me
TTITLE6=Harrison, Wilbert - Let's Stick Together
TTITLE7=Ink Spots, The - Prisoner Of Love
TTITLE8=Little Richard - Good Golly Miss Molly
TTITLE9=Lightning Hopkins - Tell Me Pretty Mama
TTITLE10=Knight, Gladys and the Pips - Operator
TTITLE11=Knight, Gladys and the Pips - Every Beat Of My Heart
TTITLE12=Memphis Slim - Caledonia
TTITLE13=Hooker, John Lee - Dimples
TTITLE14=Reed, Jimmy - Caress My Baby
TTITLE15=Powell, Bobby - A Fool For You
TTITLE16=James, Elmore - Goodbye Baby
TTITLE17=Little Richard - Money Honey
TTITLE18=Little Richard - Lucille
TTITLE19=Simon, Joe - When I'm Gone
TTITLE20=Sly and the Family Stone - Seventh Son
TTITLE21=Sledge, Percy - Warm And Tender Love
TTITLE22=Lavette, Betty - Easier To Say (Than Do)
TTITLE23=Williams, Maurice - Stay
TTITLE24=Brown, Buster - Is You Is Or You Ain't My Baby
TTITLE25=Thomas, Irma - Ruler Of My Heart
EXTD=
EXTT0=
EXTT1=
EXTT2=
EXTT3=
EXTT4=
EXTT5=
EXTT6=
EXTT7=
EXTT8=
EXTT9=
EXTT10=
EXTT11=
EXTT12=
EXTT13=
EXTT14=
EXTT15=
EXTT16=
EXTT17=
EXTT18=
EXTT19=
EXTT20=
EXTT21=
EXTT22=
EXTT23=
EXTT24=
EXTT25=
PLAYORDER=
